<svg id="logo_-_dataeum_copy_3" width="130" height="40" data-name="logo - dataeum copy 3" fill="#fff" xmlns="http://www.w3.org/2000/svg" viewBox="0 0 2261.15 568.2"><title>logo-dataeum-H</title><circle cx="253.53" cy="108.3" r="8.4"/><circle cx="253.93" cy="460.2" r="8.4"/><circle cx="100.95" cy="194.18" r="8.4"/><circle cx="404.87" cy="370.27" r="8.4"/><circle cx="405.03" cy="196.83" r="8.4"/><circle cx="99.77" cy="370.93" r="8.4"/><polygon points="259.73 280 259.73 149 374.73 214.3 374.73 329.2 386.73 336.5 386.73 206.4 252.83 129.2 246.73 132.9 246.73 149 246.73 187 246.73 279.4 132.73 344.9 132.73 214.3 233.73 156.3 233.73 140.2 118.73 206.4 118.73 360.9 125.73 365 159.93 345.3 252.93 291.6 366.93 356.9 253.43 422.3 153.63 364.8 139.53 372.9 252.73 438.1 386.73 360.9 386.73 352.5 364.93 339.6 259.73 280"/><path d="M323.8,163.6A44.2,44.2,0,1,1,368,119.4,44.21,44.21,0,0,1,323.8,163.6Zm0-74.3a30,30,0,1,0,30,30A30,30,0,0,0,323.8,89.3Z" transform="translate(-69.87 -75.2)"/><path d="M529.7,284.43a44.2,44.2,0,1,1,44.2-44.2A44.21,44.21,0,0,1,529.7,284.43Zm0-74.2a30,30,0,1,0,30,30A30,30,0,0,0,529.7,210.23Z" transform="translate(-69.87 -75.2)"/><path d="M530,522.07a44.2,44.2,0,1,1,44.2-44.2A44.21,44.21,0,0,1,530,522.07Zm0-74.2a30,30,0,1,0,30,30A30,30,0,0,0,530,447.87Z" transform="translate(-69.87 -75.2)"/><path d="M323.8,643.4A44.2,44.2,0,1,1,368,599.2,44.21,44.21,0,0,1,323.8,643.4Zm0-74.3a30,30,0,1,0,30,30A30,30,0,0,0,323.8,569.1Z" transform="translate(-69.87 -75.2)"/><path d="M115.73,519.73a44.2,44.2,0,1,1,44.2-44.2A44.21,44.21,0,0,1,115.73,519.73Zm0-74.2a30,30,0,1,0,30,30A30,30,0,0,0,115.73,445.53Z" transform="translate(-69.87 -75.2)"/><path d="M114.07,282.27c-24.4,0-44.2-17.14-44.2-44.2a44.21,44.21,0,0,1,44.2-44.2c24.4,0,44.2,18.8,44.2,43.2S138.47,282.27,114.07,282.27Zm-1.71-73.69a30,30,0,1,0,31.19,28.76A30,30,0,0,0,112.36,208.58Z" transform="translate(-69.87 -75.2)"/><path d="M1574.1,259.75h-81.76c-7,0-16.83-1.23-16.83,5.75v16.82h98.59c15.18,0,27.19-1.13,36.11,2.77s12.82,8.83,16.83,17.65,3.38,19.39,3.38,34.78v57c0,15.38.62,27.49-3.38,36.31S1617.91,448,1609,452s-19.7,7.89-34.88,7.89h-76V302.84h-22.57V466.37c0,7,9.85,16,16.83,16h81.76c28.52,0,46.58-9.33,59.81-22.57s17-36.83,17-65.35v-57c0-28.72-3.8-47.29-17-60.42S1602.62,259.75,1574.1,259.75Z" transform="translate(-69.87 -75.2)"/><path d="M1119.13,284.88c7,0,10.57-4.31,10.57-11.28s-3.49-11.29-10.57-11.29h-99.2v22.57Z" transform="translate(-69.87 -75.2)"/><path d="M1008.65,284.37V262.31h-5.85c-7,0-15.7-1.23-15.7,5.75V468.93c0,7,8.72,16,15.7,16h125.57c7,0,10.56-4.31,10.56-11.28s-3.48-11.29-10.56-11.29H1008.65v-80h79.71c7,0,10.56-3.79,10.56-10.77s-3.48-10.77-10.56-10.77h-79.71V284.37Z" transform="translate(-69.87 -75.2)"/><path d="M1821.36,266.83c-1.85-5.44-5.54-5.74-11.19-5.74h-1c-5.65,0-9.65.3-11.9,5.74l-82.79,197.69a13,13,0,0,0-1,4.51c0,3.9,2.16,6.47,6.46,8.52a13.37,13.37,0,0,0,5.13.82c4.11,0,7,.31,8.83-4.21l21-47.91h86.48l-8.82-22.57h-69.15l45.86-110.28,46.16,110.28h0l8.83,22.57h0l21.34,47.91c2.05,4.52,4.92,5.44,8.82,5.44,1.84,0,3.49-1,5.13-1.64,4.31-2,6.46-5.34,6.46-9.13,0-1.34-.31-2.05-1-4.11Z" transform="translate(-69.87 -75.2)"/><path d="M1941.18,262.11c-3.39,0-6-1.64-7.8.31s-2.67,6.46-2.67,9.64c0,7,3.49,12.52,10.57,12.52h64.32v184c0,7,6.47,10.57,13.44,10.57,3.18,0,4.52-.92,6.47-2.67s1.64-4.41,1.64-7.79V278.83h0V262.11Z" transform="translate(-69.87 -75.2)"/><path d="M2102.65,261.09h-54.06v22.57h54.06c3.18,0,5.75-4.21,7.6-6.06s2.87-6.05,2.87-9.44c0-3.18-.93-4-2.87-6S2105.83,261.09,2102.65,261.09Z" transform="translate(-69.87 -75.2)"/><path d="M2246.38,266.83c-1.85-5.44-5.54-5.74-11.18-5.74h-1c-5.64,0-9.64.3-11.9,5.74l-82.79,197.69a13.2,13.2,0,0,0-1,4.51c0,3.9,2.15,6.47,6.46,8.52a13.37,13.37,0,0,0,5.13.82c4.1,0,7,.31,8.82-4.21l21-47.91h86.49l-8.83-22.57h-69.14l45.86-110.28,46.16,110.28h0l8.82,22.57h0l21.34,47.91c2.05,4.52,4.93,5.44,8.82,5.44,1.85,0,3.49-1,5.13-1.64,4.31-2,6.47-5.34,6.47-9.13,0-1.34-.31-2.05-1-4.11Z" transform="translate(-69.87 -75.2)"/><path d="M871.29,273.74q-7.41-11.28-29.63-11.28H791.94q-44.1,0-64,12.52l64,9.34h47.25q10.23,0,13.93,4.24t3.71,15.51q0,13.76,10.93,13.76t10.93-14.46Q878.69,285,871.29,273.74Z" transform="translate(-69.87 -75.2)"/><path d="M794.82,262.45H745.09q-22.22,0-29.62,11.29t-7.41,29.62c0,.49,0,.95,0,1.42h21.82c0-.24,0-.47,0-.71q0-11.28,3.7-15.52t13.93-4.23h47.26l64-9.35Q838.91,262.46,794.82,262.45Z" transform="translate(-69.87 -75.2)"/><path d="M794.65,463.27l-47.51-1.39q-10.29-.3-13.89-4.64c-2.4-2.9-3.65-8.15-3.43-15.67.27-9.17-3.1-13.81-10.43-14S708.26,432,708,441.68q-.54,18.33,6.58,29.83c4.74,7.66,14.56,12.71,29.45,13.15l49.3.18c29.56.86,51.84-2.4,65.43-10.34" transform="translate(-69.87 -75.2)"/><path d="M787.42,484.73h0l-15.8-.05C776.33,484.8,781.56,484.82,787.42,484.73Z" transform="translate(-69.87 -75.2)"/><path d="M811.33,377.9q-15.17,0-15.16,11.28,0,10.59,15.16,10.58h45.5v44.09q0,10.93-3.53,15t-14.11,4.05H787.7c-22.57,0-43.21,9.57-51.2,4.64s-6.63-28.5-6.63-46.61v-97H708v97.74c0,25.16-3.08,40.81,19.22,50.43,4.89,2.11.24,11.51,44.43,12.62l15.8.05,54.21,0q15.52,0,24.16-6.35t10.76-14.11a73.4,73.4,0,0,0,2.11-19V377.9Z" transform="translate(-69.87 -75.2)"/><path d="M1365,276.68q-20.39-19.17-51-21.91v21.92q23.05,2.46,36.5,16,16.41,16.57,16.4,46.2v61.36q0,30-16.22,46.38t-47.26,16.4q-31,0-47.25-16.4t-16.23-46.38V338.93q0-29.62,16.4-46.2,14.22-14.39,39.2-16.28v-21.9q-32.7,2.13-53.83,22.13-23.64,22.4-23.63,61.54V401q0,39.13,23.63,61.54t61.71,22.39q37.74,0,61.55-22.39t23.8-61.54V338.22Q1388.76,299.07,1365,276.68Z" transform="translate(-69.87 -75.2)"/></svg>
